<svg width="32" height="30" viewBox="0 0 32 30" fill="none" xmlns="http://www.w3.org/2000/svg">
<path class="account-01" d="M29.5121 11.3331C29.7242 11.333 29.9341 11.3795 30.1265 11.4692C30.3189 11.559 30.4893 11.6899 30.626 11.8527C30.7627 12.0155 30.8623 12.2064 30.9178 12.4119C30.9733 12.6174 30.9831 12.8326 30.947 13.0424L28.4077 27.7523C28.3493 28.0917 28.1733 28.3994 27.9107 28.6212C27.6482 28.8429 27.3159 28.9645 26.9727 28.9643H5.02717C4.68401 28.9645 4.35171 28.8429 4.08917 28.6212C3.82663 28.3994 3.6506 28.0917 3.59219 27.7523L1.05288 13.0424C1.01677 12.8326 1.02665 12.6174 1.08211 12.4119C1.13758 12.2064 1.23726 12.0155 1.37395 11.8527C1.51064 11.6899 1.68106 11.559 1.87344 11.4692C2.06583 11.3795 2.2757 11.333 2.48786 11.3331H29.5121ZM29.5121 10.2972H2.48786C2.12537 10.2926 1.76602 10.3676 1.43544 10.517C1.10486 10.6663 0.811022 10.8863 0.574049 11.1616C0.337076 11.4369 0.162608 11.7608 0.0634646 12.1108C-0.0356789 12.4607 -0.057232 12.8281 -4.34574e-05 13.1874L2.53927 27.8973C2.63695 28.4773 2.93661 29.0037 3.38453 29.383C3.83245 29.7624 4.39975 29.97 4.98584 29.9692H26.9314C27.5175 29.97 28.0853 29.7624 28.5332 29.383C28.9811 29.0037 29.2803 28.4773 29.378 27.8973L32 13.1874C32.0616 12.8293 32.0445 12.4621 31.9501 12.1113C31.8556 11.7605 31.686 11.4346 31.4531 11.1564C31.2201 10.8782 30.9293 10.6545 30.6013 10.5007C30.2732 10.3469 29.9155 10.2668 29.5534 10.2661L29.5121 10.2972Z" fill="white"></path>
<path class="account-02" d="M7.6593 10.3696L8.85672 29.9276" stroke="white" stroke-miterlimit="10"></path>
<path class="account-03" d="M24.3406 10.3696L23.1432 29.9276" stroke="white" stroke-miterlimit="10"></path>
<path class="account-04" d="M16 10.2969V29.9999" stroke="white" stroke-miterlimit="10"></path>
<path class="account-05" d="M30.1523 20.1382H1.84778" stroke="white" stroke-miterlimit="10"></path>
<path class="account-06" d="M6.10083 10.3694C6.10083 7.73468 7.14353 5.20783 9.00002 3.34477C10.8565 1.48171 13.3746 0.435059 16 0.435059C18.6255 0.435059 21.1435 1.48171 23 3.34477C24.8565 5.20783 25.8992 7.73468 25.8992 10.3694" stroke="white" stroke-miterlimit="10"></path>
</svg>