<svg width="25" height="24" viewBox="0 0 25 24" fill="none" xmlns="http://www.w3.org/2000/svg">
<path d="M25 10.22C25 4.58667 19.3947 0 12.5 0C5.60526 0 0 4.58667 0 10.22C0 15.2733 4.44737 19.5067 10.4539 20.3067C10.8618 20.3933 11.4145 20.5733 11.5526 20.9267C11.6533 21.2982 11.6691 21.6881 11.5987 22.0667L11.4145 23.14C11.3618 23.46 11.1645 24.3867 12.5 23.8067C13.8355 23.2267 19.6974 19.5333 22.3224 16.4733C24.1316 14.4733 25 12.44 25 10.1867" fill="#37373C"></path>
<path d="M9.96031 7.50009H9.08531C9.05366 7.4992 9.02215 7.50475 8.99266 7.51641C8.96316 7.52807 8.93626 7.54561 8.91357 7.56799C8.89088 7.59036 8.87284 7.61712 8.86053 7.64668C8.84822 7.67624 8.84188 7.70801 8.84189 7.74009V13.2268C8.84098 13.2594 8.84666 13.2919 8.85857 13.3222C8.87048 13.3526 8.88838 13.3801 8.91117 13.4032C8.93395 13.4263 8.96115 13.4445 8.9911 13.4565C9.02104 13.4686 9.0531 13.4743 9.08531 13.4734H9.96031C10.0249 13.4734 10.0868 13.4474 10.1324 13.4012C10.1781 13.3549 10.2037 13.2922 10.2037 13.2268V7.74009C10.202 7.67583 10.1756 7.61479 10.1302 7.56997C10.0847 7.52514 10.0237 7.50007 9.96031 7.50009Z" fill="white"></path>
<path d="M15.9931 7.50009H15.1313C15.0679 7.50007 15.0069 7.52514 14.9615 7.56997C14.916 7.61479 14.8896 7.67583 14.8879 7.74009V11.0001L12.3945 7.60676H11.3024C11.2707 7.60587 11.2392 7.61142 11.2097 7.62308C11.1802 7.63474 11.1533 7.65228 11.1306 7.67465C11.1079 7.69703 11.0899 7.72379 11.0776 7.75335C11.0653 7.78291 11.0589 7.81467 11.0589 7.84676V13.3334C11.058 13.3661 11.0637 13.3986 11.0756 13.4289C11.0875 13.4592 11.1054 13.4868 11.1282 13.5099C11.151 13.533 11.1782 13.5511 11.2081 13.5632C11.2381 13.5753 11.2701 13.581 11.3024 13.5801H12.1774C12.2419 13.5801 12.3038 13.5541 12.3495 13.5078C12.3951 13.4616 12.4208 13.3988 12.4208 13.3334V10.0001L14.9208 13.4001C14.9388 13.4217 14.9586 13.4418 14.98 13.4601H15.9931C16.0254 13.461 16.0574 13.4553 16.0874 13.4432C16.1173 13.4311 16.1445 13.413 16.1673 13.3899C16.1901 13.3668 16.208 13.3392 16.2199 13.3089C16.2318 13.2786 16.2375 13.2461 16.2366 13.2134V7.74009C16.2366 7.70801 16.2302 7.67624 16.2179 7.64668C16.2056 7.61712 16.1876 7.59036 16.1649 7.56799C16.1422 7.54561 16.1153 7.52807 16.0858 7.51641C16.0563 7.50475 16.0248 7.4992 15.9931 7.50009Z" fill="white"></path>
<path d="M7.84851 12.1001H5.46693V7.74012C5.46522 7.67586 5.43882 7.61482 5.39335 7.57C5.34789 7.52517 5.28695 7.5001 5.22351 7.50012H4.34193C4.2785 7.5001 4.21756 7.52517 4.17209 7.57C4.12663 7.61482 4.10023 7.67586 4.09851 7.74012V13.2268C4.09843 13.2591 4.10479 13.2912 4.11723 13.3209C4.12967 13.3507 4.14791 13.3777 4.17088 13.4001C4.21513 13.4431 4.27408 13.467 4.33535 13.4668H7.84193C7.90649 13.4668 7.96841 13.4408 8.01406 13.3945C8.05971 13.3483 8.08535 13.2855 8.08535 13.2201V12.3468C8.08369 12.2819 8.05751 12.2201 8.01221 12.1742C7.96692 12.1283 7.90597 12.1018 7.84193 12.1001" fill="white"></path>
<path d="M20.8355 8.87343C20.9 8.87343 20.9619 8.84744 21.0076 8.80118C21.0532 8.75492 21.0789 8.69218 21.0789 8.62676V7.74009C21.0789 7.70801 21.0726 7.67624 21.0603 7.64668C21.0479 7.61712 21.0299 7.59036 21.0072 7.56799C20.9845 7.54561 20.9576 7.52807 20.9281 7.51641C20.8986 7.50475 20.8671 7.4992 20.8355 7.50009H17.3355C17.2724 7.50083 17.2117 7.52449 17.1644 7.56676C17.1226 7.61197 17.0991 7.67147 17.0986 7.73343V13.2201C17.0994 13.284 17.1227 13.3455 17.1644 13.3934C17.2117 13.4357 17.2724 13.4594 17.3355 13.4601H20.8355C20.8677 13.461 20.8997 13.4553 20.9297 13.4432C20.9596 13.4311 20.9868 13.413 21.0096 13.3899C21.0324 13.3668 21.0503 13.3392 21.0622 13.3089C21.0741 13.2786 21.0798 13.2461 21.0789 13.2134V12.3468C21.0789 12.2813 21.0532 12.2186 21.0076 12.1723C20.9619 12.1261 20.9 12.1001 20.8355 12.1001H18.4539V11.1734H20.8355C20.9 11.1734 20.9619 11.1474 21.0076 11.1012C21.0532 11.0549 21.0789 10.9922 21.0789 10.9268V10.0468C21.0798 10.0141 21.0741 9.98163 21.0622 9.95129C21.0503 9.92094 21.0324 9.89338 21.0096 9.87029C20.9868 9.8472 20.9596 9.82906 20.9297 9.81699C20.8997 9.80492 20.8677 9.79917 20.8355 9.80009H18.4539V8.87343H20.8355Z" fill="white"></path>
</svg>