<svg width="19" height="22" viewBox="0 0 19 22" fill="none" xmlns="http://www.w3.org/2000/svg">
<path fill-rule="evenodd" clip-rule="evenodd" d="M8.15768 9.681H5.62834C5.44157 9.69238 5.25428 9.67097 5.07454 9.61769C4.86173 9.54093 4.67741 9.39832 4.54703 9.20956C4.41664 9.0208 4.34661 8.79519 4.34661 8.56387C4.34661 8.33255 4.41664 8.10694 4.54703 7.91818C4.67741 7.72941 4.86173 7.5868 5.07454 7.51004C5.25428 7.45677 5.44157 7.43536 5.62834 7.44674H7.26251V5.77105C7.25227 5.58262 7.27314 5.39378 7.32425 5.21248C7.39911 4.99427 7.53818 4.80527 7.72227 4.67157C7.90635 4.53787 8.12638 4.46607 8.35196 4.46607C8.57755 4.46607 8.79757 4.53787 8.98166 4.67157C9.16574 4.80527 9.30482 4.99427 9.37968 5.21248C9.43078 5.39378 9.45165 5.58262 9.44141 5.77105V8.36465C9.44709 8.51739 9.43674 8.67033 9.41054 8.82081C9.36063 9.022 9.25872 9.20566 9.11557 9.35246C8.97241 9.49925 8.7933 9.60375 8.59709 9.65493C8.45034 9.68179 8.30119 9.6924 8.15223 9.68658L8.15768 9.681ZM16.2868 19.2101H2.72314V6.95706C2.72209 6.88258 2.73589 6.80865 2.76367 6.73982C2.79146 6.67099 2.83266 6.6087 2.88474 6.55676L6.40366 2.94843C6.45431 2.89503 6.51506 2.85278 6.58219 2.82429C6.64931 2.7958 6.72141 2.78166 6.79405 2.78273H16.2868V19.2157V19.2101ZM0.658632 4.89224C0.295689 5.25126 0.0674985 5.72977 0.0140379 6.24397C0.0140379 6.33147 -0.000485668 6.45622 -0.000485668 6.58282V20.4445C-0.00192357 20.5602 0.00292351 20.6758 0.0140379 20.7908C0.0562062 21.0904 0.191874 21.3678 0.400716 21.5816C0.609558 21.7954 0.880334 21.9341 1.17249 21.9769C1.28457 21.9902 1.3974 21.9958 1.51022 21.9936H17.4888C17.6016 21.9957 17.7145 21.9901 17.8265 21.9769C18.1184 21.9337 18.3887 21.7949 18.5972 21.5811C18.8057 21.3673 18.9411 21.0901 18.9832 20.7908C18.9943 20.6758 18.9991 20.5602 18.9977 20.4445V1.5483C18.9991 1.43267 18.9943 1.31706 18.9832 1.20199C18.9411 0.902747 18.8057 0.625512 18.5972 0.411731C18.3887 0.19795 18.1184 0.0591082 17.8265 0.0159676C17.7145 0.00270234 17.6016 -0.002895 17.4888 -0.000788683H6.42545C6.30198 -0.000788683 6.18033 -0.000789365 6.09499 0.0159676C5.59351 0.0693501 5.12659 0.302809 4.77675 0.675075L0.658632 4.89782V4.89224Z" fill="#37373C"></path>
</svg>