<svg xmlns="http://www.w3.org/2000/svg" width="24" height="24" viewBox="0 0 24 24" fill="none">
<path d="M12 24C18.6274 24 24 18.6274 24 12C24 5.37258 18.6274 0 12 0C5.37258 0 0 5.37258 0 12C0 18.6274 5.37258 24 12 24Z" fill="#37373C"></path>
<path d="M9.80396 18.33C15.126 18.33 18.036 13.92 18.036 10.098C18.036 9.97202 18.036 9.84603 18.03 9.72603C18.5967 9.31532 19.0863 8.80748 19.476 8.22603C18.9474 8.45894 18.3874 8.61259 17.814 8.68203C18.419 8.32086 18.8713 7.75118 19.086 7.08003C18.5179 7.41575 17.8971 7.65309 17.25 7.78203C16.8527 7.35958 16.3378 7.06617 15.7718 6.93981C15.2059 6.81345 14.615 6.85996 14.0758 7.07331C13.5366 7.28667 13.0739 7.65703 12.7476 8.13643C12.4214 8.61582 12.2466 9.18214 12.246 9.76202C12.2442 9.98443 12.2704 10.2062 12.324 10.422C11.1733 10.3648 10.0476 10.066 9.02003 9.54494C7.99248 9.02394 7.08614 8.29243 6.35996 7.39803C5.99082 8.03486 5.87841 8.78849 6.04564 9.50533C6.21287 10.2222 6.64714 10.8483 7.25996 11.256C6.80129 11.2434 6.35251 11.1198 5.95196 10.896V10.932C5.95212 11.6003 6.18342 12.248 6.60662 12.7653C7.02983 13.2826 7.6189 13.6375 8.27396 13.77C8.02565 13.8379 7.76937 13.8722 7.51196 13.872C7.32862 13.8722 7.14571 13.8541 6.96596 13.818C7.14955 14.3932 7.50872 14.8963 7.99299 15.2569C8.47727 15.6174 9.06232 15.8171 9.66596 15.828C8.64018 16.6309 7.37457 17.0661 6.07196 17.064C5.84129 17.0652 5.61079 17.0511 5.38196 17.022C6.69714 17.8793 8.23404 18.3339 9.80396 18.33Z" fill="white"></path>
</svg>