<svg width="24" height="24" viewBox="0 0 24 24" fill="none" xmlns="http://www.w3.org/2000/svg">
            <path d="M11.5585 5.74948L12 6.58041L12.4415 5.7495C12.7862 5.10097 13.363 4.22733 14.2147 3.549L13.9087 3.16472L14.2147 3.549C15.0941 2.84865 16.0796 2.5 17.1562 2.5C20.161 2.5 22.5 5.02877 22.5 8.52717C22.5 10.388 21.7811 11.9733 20.4503 13.6269C19.1068 15.2963 17.175 16.9937 14.7916 19.0853L15.1214 19.4612L14.7916 19.0853L14.7912 19.0856C13.9853 19.7929 13.0699 20.5963 12.1179 21.4535L12.1178 21.4537C12.0834 21.4847 12.0416 21.5 12 21.5C11.9584 21.5 11.9166 21.4847 11.8823 21.4537L11.882 21.4535C10.9308 20.5969 10.0158 19.7939 9.21076 19.0874L9.20894 19.0858L8.87914 19.4616L9.20893 19.0858C6.82523 16.994 4.89333 15.2965 3.54977 13.627C2.21887 11.9733 1.5 10.388 1.5 8.52717C1.5 5.02877 3.83901 2.5 6.84375 2.5C7.92041 2.5 8.90592 2.84865 9.7853 3.549L10.0913 3.16472L9.7853 3.549C10.6371 4.22734 11.2138 5.10093 11.5585 5.74948Z" stroke="white"></path>
          </svg>